<?xml version="1.0" encoding="utf-8"?>
<!-- Generator: Adobe Illustrator 23.0.1, SVG Export Plug-In . SVG Version: 6.00 Build 0)  -->
<svg version="1.1" id="Layer_1" xmlns="http://www.w3.org/2000/svg" xmlns:xlink="http://www.w3.org/1999/xlink" x="0px" y="0px"
	 viewBox="0 0 512 123" style="enable-background:new 0 0 512 123;" xml:space="preserve">
<style type="text/css">
	.st0{fill:#FF866B;}
	.st1{fill:#037FFF;}
	.st2{fill:#F05D5E;}
	.st3{fill:#2BB673;}
	.st4{fill:#0047A9;}
	.st5{fill:#1B204B;}
</style>
<g>
	<g>
		<path class="st0" d="M35.3,35.5C21.7,41.4,10.7,52.3,4.8,66C1.7,58.9,0,51,0,42.8V30.7h12.1C20.4,30.7,28.2,32.4,35.3,35.5z"/>
		<path class="st1" d="M70.7,89.2v12.1H58.5c-8.2,0-16.1-1.7-23.2-4.8C49,90.6,60,79.7,65.9,66C69,73.1,70.7,81,70.7,89.2z"/>
		<circle class="st2" cx="35.3" cy="66" r="30.5"/>
		<path class="st3" d="M35.3,96.5c-7.1,3.1-15,4.8-23.2,4.8H0V89.2C0,81,1.7,73.1,4.8,66C10.7,79.7,21.7,90.6,35.3,96.5z"/>
		<path class="st4" d="M70.7,30.7v12.1c0,8.2-1.7,16.1-4.8,23.2C60,52.3,49,41.4,35.3,35.5c7.1-3.1,15-4.8,23.2-4.8H70.7z"/>
	</g>
	<g>
		<path class="st5" d="M122,44.9c5,0,14,2,14,8.7v4.5h-8.5V56c0-2.1-3.2-3-5.5-3c-6.7,0-11.4,5.1-11.4,12c0,7.9,5.8,11.9,12,11.9
			c6.6,0,11.4-5.2,11.4-5.2l4,6.7c0,0-5.7,7-16.3,7c-12.7,0-20.9-9-20.9-20.2C100.9,54.2,108.8,44.9,122,44.9z"/>
		<path class="st5" d="M145.5,55.6c0-1.1-0.6-1.7-1.7-1.7h-3v-8.2h8.8c3.4,0,5.1,1.4,5.1,4.7v2.3c0,1.4-0.2,2.4-0.2,2.4h0.2
			c1.7-5.5,6.4-9.9,12.2-9.9c0.8,0,1.7,0.2,1.7,0.2v9.5c0,0-1-0.2-2.3-0.2c-4.1,0-8.8,2.3-10.5,8.1c-0.5,1.9-0.8,4-0.8,6.3v15.3
			h-9.5V55.6z"/>
		<path class="st5" d="M193.5,60.1h1.2v-0.3c0-5.5-2.2-7.6-7.1-7.6c-1.7,0-5.1,0.5-5.1,2.6v2h-8.9v-4.1c0-7.2,10.1-7.9,14.1-7.9
			c12.9,0,16.6,6.7,16.6,15.3v14.4c0,1.1,0.6,1.7,1.7,1.7h3v8.1h-8.6c-3.6,0-4.9-2-4.9-4.2c0-1,0.1-1.7,0.1-1.7h-0.2
			c0,0-2.9,6.8-11.6,6.8c-6.9,0-13.2-4.3-13.2-12C170.6,61.1,187.2,60.1,193.5,60.1z M186.1,77.7c5.1,0,8.8-5.4,8.8-10.1v-0.9h-1.7
			c-5,0-12.9,0.7-12.9,6C180.2,75.3,182.1,77.7,186.1,77.7z"/>
		<path class="st5" d="M230.4,44.9c8.4,0,11.1,4.7,11.1,4.7h0.2c0,0-0.1-1-0.1-2.3v-6.8c0-1.1-0.6-1.7-1.7-1.7h-3v-8.2h9.1
			c3.6,0,5.1,1.6,5.1,5.1v38.8c0,1.1,0.6,1.7,1.7,1.7h2.9v8.1h-8.8c-3.5,0-4.8-1.7-4.8-3.9c0-0.8,0-1.4,0-1.4H242
			c0,0-3.2,6.3-12,6.3c-10.4,0-17.2-8.2-17.2-20.2C212.8,52.8,220.2,44.9,230.4,44.9z M241.8,65c0-6-3.1-11.9-9.5-11.9
			c-5.3,0-9.7,4.3-9.7,11.9c0,7.3,3.9,12.1,9.5,12.1C237.1,77.1,241.8,73.5,241.8,65z"/>
		<path class="st5" d="M263.5,40.5c0-1.1-0.6-1.7-1.7-1.7h-3v-8.2h9.1c3.6,0,5.1,1.6,5.1,5.1v38.8c0,1.1,0.6,1.7,1.7,1.7h2.9v8.1
			h-9.1c-3.6,0-5.1-1.5-5.1-5.1V40.5z"/>
		<path class="st5" d="M301.4,44.9c11,0,17.1,8.1,17.1,18.3c0,1.1-0.2,3.6-0.2,3.6h-26.6c0.8,6.8,5.7,10.4,11.6,10.4
			c6.2,0,10.8-4.3,10.8-4.3l4,6.7c0,0-5.9,5.8-15.5,5.8c-12.8,0-20.7-9.2-20.7-20.2C281.9,53.2,289.9,44.9,301.4,44.9z M308.7,60.1
			c-0.2-4.6-3.3-7.8-7.3-7.8c-4.9,0-8.4,2.9-9.5,7.8H308.7z"/>
		<path class="st5" d="M349.1,40.7c0-1.1-0.6-1.7-1.7-1.7h-3.3v-8.4h9.7c3.6,0,5.1,1.6,5.1,5.1v17.6h23.7V35.8
			c0-3.6,1.6-5.1,5.1-5.1h9.7V39h-3.3c-1.1,0-1.7,0.6-1.7,1.7v43.6h-9.9V61.8H359v22.5h-9.9V40.7z"/>
		<path class="st5" d="M407.5,39h-4.9v-8.4h24c9.8,0,16.7,6,16.7,16.2c0,9.7-6.7,13.7-8.9,14.1v0.2c0,0,1.7,0.8,2.6,2.7l5.2,10.4
			c0.8,1.6,2.1,1.7,3.8,1.7h1v8.4h-5.2c-4,0-5.7-0.6-7.5-4l-6.9-13.5c-1.1-2.1-2.3-2.5-5.1-2.5h-5v20h-9.9V39z M425.3,55.8
			c5,0,7.9-3.1,7.9-8.5c0-5.3-2.9-8.3-7.8-8.3h-8v16.8H425.3z"/>
		<path class="st5" d="M449.2,75.9h2.3c1.1,0,1.6-0.6,1.7-1.7l3.5-43.6h10.3l11,25.6c1.3,3.1,2.6,7.2,2.6,7.2h0.2
			c0,0,1.4-4.1,2.6-7.2l11-25.6h10.3l3.5,43.6c0.1,1.1,0.6,1.7,1.7,1.7h2.3v8.4h-8.5c-3.6,0-4.8-1.5-5.1-5.1l-1.8-23.9
			c-0.3-3.6-0.1-8.3-0.1-8.3h-0.2c0,0-1.6,5.3-2.9,8.3l-8.9,19.8h-8l-8.9-19.8c-1.4-3-2.9-8.4-2.9-8.4h-0.2c0,0,0.2,4.8-0.1,8.4
			l-1.7,23.9c-0.3,3.6-1.6,5.1-5.1,5.1h-8.5V75.9z"/>
	</g>
</g>
</svg>
