<?xml version="1.0" encoding="utf-8"?>
<!-- Generator: Adobe Illustrator 23.0.1, SVG Export Plug-In . SVG Version: 6.00 Build 0)  -->
<svg version="1.1" id="Layer_1" xmlns="http://www.w3.org/2000/svg" xmlns:xlink="http://www.w3.org/1999/xlink" x="0px" y="0px"
	 viewBox="0 0 123 123" style="enable-background:new 0 0 123 123;" xml:space="preserve">
<style type="text/css">
	.st0{fill:#FF866B;}
	.st1{fill:#037FFF;}
	.st2{fill:#F05D5E;}
	.st3{fill:#2BB673;}
	.st4{fill:#0047A9;}
</style>
<path class="st0" d="M61.5,8.3C37.7,18.6,18.6,37.7,8.3,61.5C3,49.1,0,35.5,0,21.1V0h21.1C35.5,0,49.1,3,61.5,8.3z"/>
<path class="st1" d="M123,101.9V123h-21.1c-14.4,0-28-3-40.4-8.3c23.8-10.3,42.9-29.4,53.2-53.2C120,73.9,123,87.5,123,101.9z"/>
<circle class="st2" cx="61.5" cy="61.5" r="53.2"/>
<path class="st3" d="M61.5,114.7c-12.4,5.4-26,8.3-40.4,8.3H0v-21.1c0-14.4,3-28,8.3-40.4C18.6,85.3,37.7,104.4,61.5,114.7z"/>
<path class="st4" d="M123,0v21.1c0,14.4-3,28-8.3,40.4C104.4,37.7,85.3,18.6,61.5,8.3C73.9,3,87.5,0,101.9,0H123z"/>
</svg>
